<svg width="256" height="256" viewBox="0 0 256 256" shape-rendering="geometricPrecision" version="1.1" xmlns="http://www.w3.org/2000/svg"><desc>Created by https://guilds.gw2w2w.com/</desc><rect x="0" y="0" width="256" height="256" fill="none" stroke="none" /><g transform="matrix(-1,0,0,1,256,0)">
<g fill="rgb(26,24,27)" stroke="rgb(26,24,27)" stroke-width=".05%" stroke-opacity="50%" opacity="0.7"><path d=" M 110.54 48.46 C 116.64 37.27 122.39 25.88 128.52 14.70 C 134.58 25.79 140.27 37.08 146.33 48.17 C 134.55 46.06 122.28 46.08 110.54 48.46 Z" />
<path d=" M 153.40 49.91 C 164.22 43.20 174.95 36.34 185.75 29.61 C 185.29 42.24 185.01 54.87 184.36 67.50 C 175.31 59.74 164.74 53.63 153.40 49.91 Z" />
<path d=" M 71.77 30.24 C 82.52 36.85 93.10 43.74 103.86 50.36 C 92.56 54.37 81.89 60.46 73.00 68.54 C 72.85 55.77 72.03 43.01 71.77 30.24 Z" />
<path d=" M 119.38 52.44 C 136.47 50.23 154.31 53.98 169.01 63.01 C 181.11 70.20 191.05 80.90 197.51 93.40 C 207.11 111.39 208.87 133.30 202.53 152.66 C 197.30 169.06 186.29 183.50 171.98 193.04 C 156.51 203.41 137.15 207.99 118.70 205.32 C 106.55 203.76 94.86 199.11 84.83 192.11 C 67.92 180.31 56.03 161.47 52.97 141.05 C 50.25 124.25 53.32 106.57 61.60 91.70 C 73.12 70.34 95.34 55.41 119.38 52.44 Z" />
<path d=" M 29.97 72.29 C 42.63 72.50 55.27 73.23 67.93 73.56 C 60.08 82.61 53.88 93.28 50.27 104.72 C 43.65 93.82 36.65 83.16 29.97 72.29 Z" />
<path d=" M 189.58 72.72 C 202.30 72.44 215.00 71.65 227.72 71.40 C 221.23 82.24 214.23 92.77 207.70 103.58 C 203.70 92.30 197.61 81.62 189.58 72.72 Z" />
<path d=" M 14.66 128.52 C 25.86 122.42 37.22 116.61 48.45 110.58 C 46.12 122.31 45.96 134.61 48.28 146.35 C 37.12 140.32 25.84 134.52 14.66 128.52 Z" />
<path d=" M 209.56 110.59 C 220.75 116.62 232.09 122.36 243.24 128.48 C 232.19 134.65 220.87 140.31 209.75 146.35 C 211.86 134.59 211.91 122.31 209.56 110.59 Z" />
<path d=" M 29.86 185.63 C 36.40 174.73 43.46 164.14 50.05 153.27 C 53.89 164.57 59.88 175.27 67.74 184.28 C 55.12 184.75 42.49 185.35 29.86 185.63 Z" />
<path d=" M 189.69 185.15 C 197.76 176.26 203.80 165.56 207.81 154.27 C 214.32 165.10 221.37 175.58 227.85 186.43 C 215.12 186.30 202.42 185.34 189.69 185.15 Z" />
<path d=" M 72.87 189.34 C 76.16 192.36 79.61 195.26 83.47 197.55 C 89.92 201.35 96.36 205.36 103.61 207.46 C 92.89 214.13 82.28 220.99 71.49 227.55 C 71.77 214.81 72.47 202.08 72.87 189.34 Z" />
<path d=" M 153.64 207.97 C 164.98 204.13 175.69 198.09 184.72 190.22 C 185.21 202.87 185.42 215.54 186.13 228.18 C 175.14 221.71 164.53 214.61 153.64 207.97 Z" />
<path d=" M 110.52 209.53 C 122.25 211.97 134.51 211.76 146.31 209.85 C 140.28 220.93 134.67 232.24 128.49 243.23 C 122.31 232.10 116.68 220.67 110.52 209.53 Z" /></g>
</g><g transform="matrix(-2,0,0,2,256,0)">
<g fill="rgb(152,63,23)" stroke="rgb(152,63,23)" stroke-width=".05%" stroke-opacity="50%"><path d="M18.77 77.26c8.58 1.41 17.13 5.68 21.96 13.15 2.44 3.4 3.41 7.51 4.26 11.53-2.58-.46-5.16-.93-7.79-1.01-2.37-7.31-8.41-13.5-16.06-15.08-.42-1.35-.86-2.69-1.28-4.04 8.18 1.79 16.69 6.32 19.69 14.63-1.04 1.31-.41 2.79.88 3.62 2.15-1.02 1.77-3.08-.2-4.05-2.7-8.72-11.94-13.63-20.41-15.14-.4-1.19-.74-2.4-1.05-3.61zM93.23 84.21c4.66-3.77 10.44-5.94 16.3-6.97l-.88 3.47c-8.36 1.69-17.15 6.19-20.47 14.51-.38 1.2-1.33 2.01-2.19 2.86.4.45 1.2 1.36 1.6 1.81.43-.23 1.28-.68 1.7-.91-1.39-3.56 1.43-6.59 3.47-9.17 4.14-4.22 9.74-6.68 15.44-7.96-.33 1.35-.7 2.68-1.1 4.01-7.75 1.56-13.55 7.84-16.19 15.05-2.58.1-5.11.6-7.65 1.01 1.04-6.88 4.42-13.41 9.97-17.71zM50.67 89.97c1.34.03 2.69.07 4.04.13.75 3.55 1.56 7.08 1.88 10.7l3.42.18c.05-3.74-.11-7.49-.45-11.22l2.89-.12c.01 3.72.02 7.44-.03 11.17 1.24.04 2.48.08 3.72.11.03-3.73.03-7.47-.02-11.21.8 0 2.4.01 3.2.02-.3 3.74-.37 7.49-.32 11.24 1.1-.07 2.21-.14 3.31-.2.42-3.64 1.17-7.23 1.97-10.8 1.29.04 2.59.09 3.89.16-.96 3.58-2.03 7.12-3 10.7 1.11-.02 2.21-.05 3.32-.09.76-3.54 2.25-6.84 3.98-9.99.39.33 1.19.99 1.59 1.32-2.86 6.34-4.72 13.05-5.91 19.89-9.34.11-18.68 0-28.02.04-.55-7.09-2.98-13.88-5.86-20.33.59-.19 1.77-.58 2.36-.77 1.51 3.16 3.19 6.31 3.74 9.82 1.09.06 2.19.12 3.29.17-.82-3.69-1.88-7.31-2.99-10.92z" /></g>
<g fill="rgb(189,186,185)" stroke="rgb(189,186,185)" stroke-width=".05%" stroke-opacity="50%"><path d="M59.76 16.67c4.65 2.89 10 4.82 14.14 8.42-2.72 4.37-7.56 6.6-11.34 9.88 2.26.06 4.52.07 6.79.14-3.04 2.49-6.23 4.85-8.33 8.25-.61 1.85-.25 4.04 1.67 4.96 7.11 4 15.39 5.86 21.93 10.93 2.28 1.8 4.29 4.64 3.87 7.68-.97 3.22-3.49 5.62-5.36 8.33.17-6.54-5.38-10.76-8.83-15.66-7.17-3.97-15.15-6.5-22.2-10.74-2.19-1.42-2.31-4.53-.6-6.38 5.56-5.11 11.53-9.78 16.97-15.02.6-1.05 1.19-2.1 1.75-3.17-.61-.39-1.25-.75-1.9-1.06l-.48 2.57c-1.85-3.73-4.92-6.53-8.08-9.13z" />
<path d="M48.03 40.33c3.39-2.47 7.05-4.54 10.57-6.81-3.53 4.23-8.05 7.57-11.05 12.29 1.23 1.56 2.15 3.52 4.03 4.42 5.17 2.91 10.49 5.54 15.73 8.31.01.52.02 1.54.03 2.05 2.15-.26 4.3.01 6.4.44 1.13 2.37 2.54 4.58 4.03 6.73-3.85-2.44-8.96-3.62-13.06-1.09-1.44 2.64-2.39 5.84-1.29 8.8.72-2.23 1.34-4.49 1.8-6.79 3.05-1.07 6.48.87 6.1 4.33.04 5.59-6.81 5.94-10.91 5.62-1.74-2.91-3.46-5.84-5.22-8.74 1.79-5.49 7.15-8.31 12.21-10.02-7.59-2.44-14.36-6.91-21.62-10.15-.63-2.48-.15-4.99.47-7.41.27.6.81 1.8 1.08 2.41l.73.06c-.05-1.49-.06-2.97-.03-4.45zM77.24 34.86c1.11 2 2.73 3.61 4.79 4.62.43 1.9-.07 3.82-.28 5.72-.87-2.39-3.11-3.74-4.5-5.75-.18-1.52 0-3.06-.01-4.59z" />
<path d="M62.01 45.95c-.47-3.31 2.92-5.31 4.43-7.83-.34 4.93 5.02 7.02 8.75 8.66 1.86.88 2.68-1.58 3.88-2.5.5 2.48-.28 5.11-3.26 5.05 5.08 2.72 11.02 5.36 13.44 10.99-5.66-5.91-13.98-7.3-21.2-10.43-2.17-1-4.58-1.95-6.04-3.94zM48.74 52.89c4.52 2.07 8.94 4.37 13.41 6.54-2.38-.2-4.77-.05-7.14-.28-2.21-1.96-4.17-4.18-6.27-6.26zM51.8 62.1c2.88-.4 5.74-.89 8.64-1.17-2.49 1.76-5.16 3.54-6.28 6.54-.9-1.74-1.68-3.54-2.36-5.37zM50.51 63.34c1.95 5.09 4.57 9.89 6.75 14.88-4.23-.83-7.84-3.28-10.9-6.22 1.11-3.01 2.79-5.76 4.15-8.66z" />
<path d="M68.51 65.97c4.05.82 8.48 1.89 11.14 5.34.57 3.46.72 6.98 1.35 10.44-1.17 1.95-2.32 3.92-3.5 5.87-8.74-.42-17.53-.59-26.25.27-3.64-4.16-4.46-9.77-5.37-15.02l.69-.01c3.42 5.55 9.95 8.94 16.47 8.12 3.45-.48 8.11-1.04 9.45-4.84 1.65-3.83-.54-8.2-3.98-10.17z" /></g>


</g></svg>